<svg id="레이어_1" data-name="레이어 1" xmlns="http://www.w3.org/2000/svg" viewBox="0 0 262.63 321.68"><defs><style>.cls-1{fill:#333;}.cls-2{fill:#e37621;}</style></defs><title>direction</title><path class="cls-1" d="M211.24,240.29l20.47,28.18q14.43,19.84,28.85,39.7c2.57,3.55,2.72,7.11.6,10.07s-5.06,3.87-8.57,3.15a8.31,8.31,0,0,1-5-3.64c-2.57-3.53-5.33-6.95-7.64-10.65-1.54-2.48-3.41-3-6.16-3q-102.54.1-205.08,0c-2.85,0-4.57.82-6.09,3.18-2.29,3.57-4.91,6.93-7.45,10.33-3.17,4.25-7.93,5.32-11.73,2.7-4-2.72-4.57-7.68-1.3-12.19q23.3-32.16,46.68-64.25c.7-1,1.67-1.82,1.92-3.53-4.7,0-9.27,0-13.84,0-19.82-.07-33.72-13.92-33.73-33.73q0-86.22,0-172.46C3.14,13.86,16.61.19,36.86.07c20.5-.13,41,0,61.49,0q63.36,0,126.73,0c14,0,24.57,5.62,31.07,18.23a31.22,31.22,0,0,1,3.29,14.46q0,87.36,0,174.72c0,18.84-14.15,32.72-33.06,32.86C221.61,240.32,216.87,240.29,211.24,240.29Zm-80-16.32h94.48c11.11,0,17.41-6.28,17.42-17.36q0-86.43,0-172.85c0-11.21-6.43-17.63-17.67-17.63-62.74,0-125.48.07-188.22-.09-10.43,0-18,7.29-17.92,18q.41,86,0,172.09c-.05,10.24,7.24,18.16,18.2,18C68.74,223.69,100,224,131.23,224ZM36.88,287.72H225.71c-3.72-5.12-7.1-9.73-10.43-14.39-.89-1.26-2.13-1.1-3.36-1.1H50.69c-1.4,0-2.64,0-3.6,1.4C43.87,278.21,40.53,282.7,36.88,287.72ZM60.1,255.8H202.49c-3.51-4.84-6.76-9.26-9.91-13.75a4.1,4.1,0,0,0-3.8-1.79q-57.5.06-115,0a4.07,4.07,0,0,0-3.78,1.8C66.86,246.55,63.61,251,60.1,255.8Z"/><path class="cls-1" d="M131.29,64.14q39.56,0,79.12,0c10.25,0,16.86,6.59,16.87,16.83q0,23.25,0,46.5c0,9.86-6.76,16.78-16.67,16.79q-79.31.06-158.62,0c-9.91,0-16.66-6.93-16.67-16.79q0-23.45,0-46.88c0-9.74,6.72-16.44,16.48-16.45Q91.54,64.12,131.29,64.14ZM130.91,128c25.5,0,51,0,76.5.06,2.81,0,3.89-.57,3.86-3.65q-.26-20.25,0-40.5c0-3.07-1-3.71-3.85-3.71q-76.12.12-152.25,0c-2.83,0-3.89.61-3.85,3.7q.26,20.24,0,40.49c0,3.07,1,3.67,3.85,3.66C80.42,127.93,105.67,128,130.91,128Z"/><path class="cls-2" d="M203.21,160.14a24,24,0,1,1-23.91,24.07A23.79,23.79,0,0,1,203.21,160.14Zm7.86,24a7.79,7.79,0,1,0-7.75,7.82A7.58,7.58,0,0,0,211.07,184.1Z"/><path class="cls-2" d="M83.28,184.14a24,24,0,1,1-24-24A23.8,23.8,0,0,1,83.28,184.14Zm-24.05,7.78a7.79,7.79,0,1,0-7.73-7.85A7.58,7.58,0,0,0,59.23,191.92Z"/><path class="cls-2" d="M131.29,48.29c-12.86,0-25.73,0-38.6,0-3,0-5.69-.72-7.66-3.15C81.32,40.56,83.52,34,89.36,32.37A12.31,12.31,0,0,1,92.68,32q38.61,0,77.21,0c5.19,0,8.72,2.66,9.34,6.83.78,5.33-3,9.43-9,9.46C157.28,48.34,144.29,48.29,131.29,48.29Z"/></svg>