<svg id="레이어_1" data-name="레이어 1" xmlns="http://www.w3.org/2000/svg" viewBox="0 0 321.28 321.62"><defs><style>.cls-1{fill:#333;}.cls-2{fill:#e37621;}</style></defs><title>direction</title><path class="cls-1" d="M160.52,0H267.78c17.53,0,28.13,10.55,28.15,28,0,6.6.08,13.2-.05,19.79,0,2.23.64,3,2.9,2.92,4.35-.15,8.71-.12,13.06,0,5.84.14,9.38,3.58,9.39,9.45q.09,41.36,0,82.72c0,5.74-3.29,9.08-9,9.35a104.47,104.47,0,0,1-12.26,0c-3.41-.25-4.1,1-4.09,4.23.11,34.3,0,68.6.1,102.9,0,11.61-4.4,20.44-15.07,25.62-1.83.89-1.95,2.16-1.94,3.82,0,4.34.39,8.76-.78,13-3.05,11-10.37,17.79-21.67,19.1a85.48,85.48,0,0,1-24.84-.33,24.92,24.92,0,0,1-20.34-24.31c-.09-8.94-.09-8.94-9-8.94H116.81c-6.85,0-7,0-6.81,6.75.18,6.6-1.47,12.51-5.64,17.65a23.27,23.27,0,0,1-14.93,8.88,87.17,87.17,0,0,1-25.6.1c-12.4-1.88-20.87-11-21.16-23.38-.18-7.25-1.38-12.33-8.26-16.49s-9.06-12-9.06-20.05c0-34.56-.06-69.13.08-103.69,0-3.69-.68-5.25-4.68-4.86a82.83,82.83,0,0,1-11.47,0c-6-.25-9.23-3.57-9.24-9.54Q0,101.54,0,60.37c0-6.1,3.5-9.55,9.55-9.67,4.22-.08,8.45-.15,12.67,0,2.4.1,3.2-.62,3.14-3.09-.16-7-.09-14,0-21C25.45,11.05,36.43,0,52.07,0Q106.29,0,160.52,0Zm-.29,186q57.18,0,114.38.07c3.22,0,4.18-.7,4.17-4.07q-.19-55,0-110c0-3.31-.86-4.13-4.14-4.13q-114,.15-228,0c-3.24,0-4.19.75-4.17,4.1q.18,55,0,110c0,3.32.87,4.12,4.14,4.11C84.5,185.94,122.36,186,160.23,186Zm.59,17c-37.87,0-75.74.06-113.61-.09-3.89,0-4.78,1.06-4.73,4.82.22,16.76.09,33.52.09,50.27,0,10.23,2.1,12.36,12.19,12.36H267.33c8.84,0,11.37-2.5,11.37-11.19,0-17.15-.12-34.31.1-51.46,0-3.81-.93-4.81-4.77-4.79C236.3,203,198.56,203,160.82,203Zm-.16-152.28q57,0,114,.07c3.25,0,4.32-.73,4.17-4.09-.28-6.46-.06-12.93-.09-19.39,0-7.18-2.86-10-10.06-10h-216c-7.18,0-10,2.86-10,10.08,0,6.46.2,12.93-.09,19.38-.15,3.43,1,4.06,4.22,4Q103.68,50.59,160.66,50.68ZM76.26,287.3H66.78c-8,0-8,0-7.48,8.06.33,5.31,3.57,8.57,8.8,8.64,5.53.09,11.06,0,16.6,0A7.57,7.57,0,0,0,92,299.49c1.64-3.49,1-7.24.88-10.89,0-1.85-1.71-1.26-2.77-1.28C85.49,287.27,80.87,287.3,76.26,287.3Zm169.11,0h-9.49c-8.25,0-8.25,0-7.52,8.45.45,5.29,3.39,8.17,8.65,8.25s10.8,0,16.2,0a8.24,8.24,0,0,0,6.08-2.34c2.23-2.15,3.86-10.74,2.62-13.49-.61-1.36-1.77-.87-2.71-.88C254.59,287.27,250,287.3,245.37,287.3ZM17.24,101.65c0,10.16.17,20.31-.09,30.46-.1,3.67,1.93,3.19,4.18,3.22s4.14.28,4.11-3.29q-.29-30.45,0-60.91c0-3.64-1.91-3.21-4.18-3.25s-4.2-.23-4.11,3.32C17.41,81.35,17.24,91.5,17.24,101.65Zm278.69-.14c0,10,.15,20-.09,30.06-.08,3.31,1.11,3.94,4,3.81,2.57-.11,4.29.08,4.25-3.59q-.3-30.25,0-60.52c0-4-2.11-3.22-4.44-3.41-2.8-.23-3.92.44-3.85,3.59C296.06,81.47,295.93,91.49,295.93,101.51Z"/><path class="cls-2" d="M84.47,211.32a25.32,25.32,0,1,1-25.16,25.47A25.09,25.09,0,0,1,84.47,211.32Zm-.17,33.54a8.24,8.24,0,1,0-7.9-8.55A8.06,8.06,0,0,0,84.3,244.86Z"/><path class="cls-2" d="M236.71,211.32a25.32,25.32,0,1,1-25.39,25.25A25.1,25.1,0,0,1,236.71,211.32Zm8.17,25.38a8.24,8.24,0,1,0-8.3,8.17A8,8,0,0,0,244.88,236.7Z"/><path class="cls-1" d="M160.39,245.25c-7.77,0-15.54,0-23.3,0-6.23,0-10.25-3.33-10.36-8.45s4-8.75,10.44-8.76q23.51,0,47,0c6.24,0,10.25,3.33,10.36,8.45s-4,8.74-10.45,8.77C176.19,245.27,168.29,245.25,160.39,245.25Z"/><path class="cls-2" d="M160.83,25.35q28.66,0,57.33,0c5.76,0,9.38,2.8,9.92,7.51.62,5.41-3.07,9.54-8.93,9.66-6.72.14-13.44,0-20.16,0q-47.84,0-95.68,0c-5.47,0-9-2.39-10-6.54C92,30.09,96,25.39,102.71,25.37,122.08,25.31,141.46,25.35,160.83,25.35Z"/></svg>