<svg id="레이어_1" data-name="레이어 1" xmlns="http://www.w3.org/2000/svg" viewBox="0 0 320.09 321.68"><defs><style>.cls-1{fill:#e37621;}.cls-2{fill:#fff;}</style></defs><title>funeral_call</title><path class="cls-1" d="M320.05,156.33C321,199.67,305,243.56,274,274.22A173.9,173.9,0,0,1,251.38,293a154,154,0,0,1-73.87,27.34c-4.24.43-8.48.92-12.72,1.38H156c-1.85-.26-3.69-.59-5.54-.78-4.88-.5-9.82-.67-14.65-1.45-27.49-4.43-52.65-14.64-74.21-32.33C13.22,247.44-7.07,196.28,2.18,134.32c6-40.42,26.07-73.5,58-98.92C98,5.22,141.36-5.59,188.89,2.69c41.47,7.24,74.94,28.5,100.28,62.14C309.14,91.34,319.32,123.71,320.05,156.33ZM56.9,94.94c.26,13.61,3.72,23.45,8.07,33,11.48,25.27,27.83,47.19,46.86,67.2,20.83,21.9,43.55,41.47,70.19,56.06,12.08,6.61,24.59,12.19,38.64,13,7,.41,13.62-.77,18.87-5.93,6.27-6.18,12.53-12.36,18.66-18.68,7.53-7.78,7.72-19.08.24-26.88q-12.08-12.58-24.68-24.66c-7.82-7.48-19.06-7.18-26.85.36-3.24,3.13-6.48,6.28-9.55,9.57-2.57,2.76-5.73,4.16-9.29,3.48-4.47-.84-9.17-1.66-13.17-3.67-20.15-10.16-35.58-25.63-47.75-44.38a75.45,75.45,0,0,1-6.84-14.74c-2.37-6.32-1.45-12.07,4.16-16.67a95.61,95.61,0,0,0,7.36-7.3c8.59-8.75,8.61-20,0-28.74q-11.15-11.31-22.45-22.45c-8.89-8.77-20-8.71-28.94.07C75.1,68.83,70,74.25,64.57,79.33S56.64,90.5,56.9,94.94Z"/><path class="cls-2" d="M56.9,94.94c-.26-4.44,2.25-10.53,7.67-15.61S75.1,68.83,80.39,63.6c8.89-8.78,20-8.84,28.94-.07Q120.64,74.67,131.78,86c8.65,8.77,8.63,20,0,28.74a95.61,95.61,0,0,1-7.36,7.3c-5.61,4.6-6.53,10.35-4.16,16.67a75.45,75.45,0,0,0,6.84,14.74c12.17,18.75,27.6,34.22,47.75,44.38,4,2,8.7,2.83,13.17,3.67,3.56.68,6.72-.72,9.29-3.48,3.07-3.29,6.31-6.44,9.55-9.57,7.79-7.54,19-7.84,26.85-.36q12.6,12.06,24.68,24.66c7.48,7.8,7.29,19.1-.24,26.88-6.13,6.32-12.39,12.5-18.66,18.68-5.25,5.16-11.87,6.34-18.87,5.93-14-.81-26.56-6.39-38.64-13-26.64-14.59-49.36-34.16-70.19-56.06-19-20-35.38-41.93-46.86-67.2C60.62,118.39,57.16,108.55,56.9,94.94Z"/></svg>