<svg id="레이어_1" data-name="레이어 1" xmlns="http://www.w3.org/2000/svg" viewBox="0 0 403.75 321.68"><defs><style>.cls-1{fill:#333;}.cls-2{fill:#e37621;}</style></defs><title>funeral</title><path class="cls-1" d="M201.71,281.21c-21.88,0-43.76.08-65.64-.09-3.54,0-4.63.9-4.49,4.45a147.21,147.21,0,0,1-.19,17.45,19.73,19.73,0,0,1-19.6,18.62q-20.54.42-41.08,0C59.3,321.4,51,312.56,50.94,301.2c0-5.35-.16-10.71.06-16.05.12-3-.64-4.17-3.86-4-5.5.27-11,.1-16.53.07C14.77,281.1,1.55,269.47.84,253.62.05,236-.84,218.35,1.55,200.84,3,190.08,8.63,181.09,16.61,173.73c1.84-1.69,2.05-2.59.5-4.82C7.87,155.54,8,141,13.93,126.71c4.18-10.13,12.92-15.72,24-16.54a197.71,197.71,0,0,1,22.18-.27c4,.16,5.69-1.33,7.13-4.93,6-15,12.37-29.87,18.6-44.79,6-14.33,15.57-20.78,30.93-20.79,13.7,0,27.39-.07,41.09.06,2.79,0,3.92-.6,3.78-3.63-.24-5.34-.14-10.7,0-16,.21-12,8.92-20.76,21-20.87q19.59-.18,39.19,0c11.82.13,20.5,8.81,20.78,20.59.13,5.35.21,10.72,0,16.06-.15,3.17,1,3.93,4,3.9,14.16-.15,28.33-.13,42.5-.05,13.53.08,23.08,6.54,28.41,18.82q10.13,23.33,19.55,47c1.52,3.82,3.52,4.81,7.3,4.7a211.71,211.71,0,0,1,21.23.2,29.68,29.68,0,0,1,28.06,28c.79,11.2,1,22.51-7.21,31.74-1.81,2,.07,2.7,1.08,3.65a50.58,50.58,0,0,1,15.33,27.55,75,75,0,0,1,1,15c-.09,12.59.32,25.21-.42,37.76-.91,15.56-14,27.21-29.55,27.34-5.51,0-11,.22-16.52-.07-3.46-.19-4.24,1.07-4.09,4.27.25,5.18.09,10.38.06,15.58-.06,11.47-8.16,20.36-19.54,20.64q-20.78.51-41.56,0c-10.58-.25-18.59-8.19-19.39-18.84a158.89,158.89,0,0,1-.15-17.46c.12-3.35-1-4.2-4.27-4.18C246.1,281.27,223.91,281.21,201.71,281.21Zm.37-20.27H263q53.83,0,107.67,0c9.34,0,12.78-3.55,12.8-12.89,0-12.12.07-24.24,0-36.36-.07-9.42-3.39-17.48-10.58-23.8-6.67-5.86-14.63-7.35-23.23-7.34q-147.57.09-295.14,0c-1.1,0-2.21,0-3.31,0-18.22.74-30.37,13.29-30.49,31.56-.06,11.34,0,22.67,0,34,0,12,2.78,14.77,14.7,14.77ZM337.53,160.13a26,26,0,0,0-.81-2.88c-7.52-18.11-15.14-36.18-22.54-54.34-1.14-2.82-2.87-3.12-5.42-3.12q-106.69.08-213.39-.05c-3.32,0-4.61,1.22-5.76,4.06-5.34,13.24-10.9,26.39-16.38,39.58l-7,16.75ZM201.6,79.57h94c8.85,0,8.85,0,5.4-8.23-4.76-11.32-5.29-11.69-17.43-11.69H124.4c-16.36,0-16.24.06-22.69,15.13-1.67,3.88-1.46,4.9,3.08,4.87C137.06,79.49,169.33,79.57,201.6,79.57ZM91.15,301.17c5.66,0,11.33-.09,17,0,2.34.05,3.42-.52,3.31-3.12-.18-4.55-.16-9.12,0-13.68.08-2.4-.61-3.28-3.15-3.26-11.32.13-22.64.09-34,0-2.1,0-3.2.46-3.15,2.84.12,4.71.15,9.43,0,14.15-.08,2.68,1.25,3.07,3.48,3C80.14,301.1,85.65,301.17,91.15,301.17Zm221.87,0c1.42,0,2.84.1,4.25,0,5.09-.41,12,2.35,14.83-1.11s.59-10.26.86-15.58c.13-2.37-.62-3.33-3.17-3.3q-17,.16-34,0c-2.58,0-3.19.93-3.11,3.29.15,4.4.24,8.82,0,13.21-.19,3.11,1.12,3.65,3.83,3.57C302,301.05,307.52,301.17,313,301.17ZM201.81,39.39c5.66,0,11.32-.09,17,0,2.39.06,3.38-.59,3.28-3.15-.18-4.55-.16-9.12,0-13.68.08-2.47-.76-3.25-3.23-3.23q-16.74.16-33.49,0c-2.39,0-3.37.63-3.28,3.17.18,4.55.17,9.12,0,13.68-.09,2.48.75,3.27,3.22,3.2C190.8,39.28,196.31,39.39,201.81,39.39ZM56.66,130.06H43.58c-.79,0-1.58,0-2.36,0-6.32.42-10.09,4.31-10.23,10.6-.07,3.14-.09,6.29,0,9.43a10.27,10.27,0,0,0,10.65,10.23c1.57,0,2.61-.32,3.27-1.92C48.7,149.16,52.56,139.93,56.66,130.06Zm290.86,0c3.64,8.8,7.08,17.16,10.55,25.52,2.1,5.07,4.27,6,9.24,3.66a9.26,9.26,0,0,0,5.81-8.46c.11-3.45.11-6.92,0-10.37-.15-6-3.89-10-10-10.3C358.15,129.89,353.13,130.08,347.52,130.08Z"/><path class="cls-2" d="M71.15,251a30.22,30.22,0,1,1,30.19-30.31A30.36,30.36,0,0,1,71.15,251Zm-.13-40a9.83,9.83,0,1,0,.12,19.66A9.83,9.83,0,1,0,71,210.93Z"/><path class="cls-2" d="M332.94,251a30.22,30.22,0,1,1,30.53-30.08A30.1,30.1,0,0,1,332.94,251Zm10-30.44a9.63,9.63,0,0,0-10-9.61,9.83,9.83,0,1,0,.45,19.64A9.6,9.6,0,0,0,342.91,220.53Z"/><path class="cls-2" d="M202.11,231q-23.84,0-47.68,0a15.51,15.51,0,0,1-6.48-.91c-4.13-1.85-6.38-5-6.31-9.58.06-4.41,2.3-7.38,6.23-9.15a13.33,13.33,0,0,1,5.53-.94q48.63,0,97.25,0c6.56,0,11,3.31,11.8,8.56,1,6.69-3.75,11.9-11.25,11.95C234.84,231.1,218.47,231,202.11,231Z"/></svg>